<svg width="20" height="20" viewBox="0 0 24 24" fill="none" xmlns="http://www.w3.org/2000/svg"><path d="M11 3.16797L11.625 2.33594C11.7813 2.125 12.0312 2 12.293 2C12.75 2 13.125 2.375 13.125 2.83203V3.69922C13.125 4.21094 13.3359 4.70312 13.707 5.05469L17.0156 8.21094C18.9219 10.0312 20 12.5547 20 15.1914C20 18.9531 16.9531 22 13.1914 22H12.5C8.35938 22 5 18.6406 5 14.5V14.3516C5 12.4453 5.75781 10.6172 7.10547 9.26953L7.24219 9.13281C7.40625 8.96875 7.63281 8.875 7.86719 8.875C8.35547 8.875 8.75 9.26953 8.75 9.75781V13.25C8.75 14.6289 9.87109 15.75 11.25 15.75C12.6289 15.75 13.75 14.6289 13.75 13.25V13.0977C13.75 12.3945 13.4688 11.7188 12.9727 11.2227L11.4648 9.71484C10.5273 8.77734 10 7.5 10 6.17188C10 5.08984 10.3516 4.03125 11 3.16797Z" fill="currentColor"></path></svg>