<svg width="26" height="26" viewBox="0 0 24 24" fill="none" xmlns="http://www.w3.org/2000/svg">
<rect x="2" y="3" width="20" height="18" rx="1" fill="black"/>
<path d="M9.66208 8C10.0917 8 10.5108 8.06287 10.9194 8.18861C11.3386 8.30386 11.7001 8.48199 12.0039 8.72299C12.3183 8.51343 12.6693 8.34054 13.057 8.20432C13.4551 8.06811 13.9319 8 14.4872 8C14.8854 8 15.2731 8.05239 15.6503 8.15717C16.038 8.26195 16.3785 8.4296 16.6719 8.66012C16.9758 8.88016 17.2168 9.17878 17.3949 9.55599C17.573 9.92272 17.6621 10.3733 17.6621 10.9077V15.8585C17.5573 15.89 17.3897 15.9214 17.1591 15.9528C16.9391 15.9843 16.7086 16 16.4676 16C16.2371 16 16.0275 15.9843 15.8389 15.9528C15.6608 15.9214 15.5088 15.8585 15.3831 15.7642C15.2574 15.6699 15.1578 15.5442 15.0845 15.387C15.0216 15.2194 14.9902 15.0046 14.9902 14.7426V10.9862C14.9902 10.6719 14.9011 10.4466 14.723 10.3104C14.5449 10.1637 14.3039 10.0904 14 10.0904C13.8533 10.0904 13.6961 10.127 13.5285 10.2004C13.3608 10.2633 13.2351 10.3314 13.1513 10.4047C13.1618 10.4466 13.167 10.4885 13.167 10.5305C13.167 10.5619 13.167 10.5933 13.167 10.6248V15.8585C13.0517 15.89 12.8788 15.9214 12.6483 15.9528C12.4283 15.9843 12.203 16 11.9725 16C11.742 16 11.5324 15.9843 11.3438 15.9528C11.1657 15.9214 11.0138 15.8585 10.888 15.7642C10.7623 15.6699 10.6627 15.5442 10.5894 15.387C10.5265 15.2194 10.4951 15.0046 10.4951 14.7426V10.9862C10.4951 10.6719 10.3955 10.4466 10.1965 10.3104C10.0079 10.1637 9.77734 10.0904 9.50491 10.0904C9.31631 10.0904 9.1539 10.1218 9.01768 10.1847C8.88147 10.2371 8.76621 10.2895 8.67191 10.3418V15.8585C8.56712 15.89 8.39948 15.9214 8.16896 15.9528C7.94892 15.9843 7.7184 16 7.47741 16C7.24689 16 7.03733 15.9843 6.84872 15.9528C6.6706 15.9214 6.51866 15.8585 6.39293 15.7642C6.26719 15.6699 6.16765 15.5442 6.0943 15.387C6.03143 15.2194 6 15.0046 6 14.7426V9.99607C6 9.71316 6.05763 9.48788 6.17289 9.32024C6.29862 9.15259 6.46627 8.99542 6.67583 8.84872C7.03209 8.59725 7.47217 8.39293 7.99607 8.23576C8.53045 8.07859 9.08579 8 9.66208 8Z" fill="white"/>
</svg>