<svg width="103" height="20" viewBox="0 0 103 20" fill="none" xmlns="http://www.w3.org/2000/svg">
<path d="M0.775602 18.9999C0.519602 18.9999 0.391602 18.8719 0.391602 18.6159V6.61589C0.391602 6.37589 0.519602 6.25589 0.775602 6.25589H3.7996C4.0556 6.25589 4.1836 6.37589 4.1836 6.61589L4.2556 7.83989C4.7036 7.21589 5.2556 6.75989 5.9116 6.47189C6.5836 6.16789 7.3356 6.01589 8.1676 6.01589C10.0236 6.01589 11.3436 6.66389 12.1276 7.95989C12.5916 7.30389 13.1756 6.81589 13.8796 6.49589C14.5836 6.17589 15.3756 6.01589 16.2556 6.01589C17.7276 6.01589 18.8636 6.43189 19.6636 7.26389C20.4796 8.07989 20.8876 9.22389 20.8876 10.6959V18.6159C20.8876 18.8719 20.7676 18.9999 20.5276 18.9999H16.9516C16.6956 18.9999 16.5676 18.8719 16.5676 18.6159V12.3039C16.5676 11.4079 16.4236 10.7679 16.1356 10.3839C15.8636 9.99989 15.4316 9.80789 14.8396 9.80789C14.2316 9.80789 13.7356 10.0399 13.3516 10.5039C12.9836 10.9679 12.7996 11.6719 12.7996 12.6159V18.6159C12.7996 18.8719 12.6716 18.9999 12.4156 18.9999H8.8636C8.6076 18.9999 8.4796 18.8719 8.4796 18.6159V12.3039C8.4796 11.4079 8.3356 10.7679 8.0476 10.3839C7.7756 9.99989 7.3436 9.80789 6.7516 9.80789C6.1436 9.80789 5.6476 10.0399 5.2636 10.5039C4.8956 10.9679 4.7116 11.6719 4.7116 12.6159V18.6159C4.7116 18.8719 4.5836 18.9999 4.3276 18.9999H0.775602Z" fill="black"/>
<path d="M30.0753 19.2399C28.7313 19.2399 27.5553 18.9599 26.5473 18.3999C25.5553 17.8399 24.7793 17.0639 24.2193 16.0719C23.6753 15.0639 23.4033 13.9119 23.4033 12.6159C23.4033 11.3199 23.6753 10.1759 24.2193 9.18389C24.7793 8.19189 25.5553 7.41589 26.5473 6.85589C27.5553 6.29589 28.7313 6.01589 30.0753 6.01589C31.4993 6.01589 32.6913 6.32789 33.6513 6.95189C34.6113 7.57589 35.3233 8.43989 35.7873 9.54389C36.2673 10.6319 36.4673 11.9039 36.3873 13.3599C36.3713 13.5999 36.2353 13.7199 35.9793 13.7199H27.7713C28.0913 15.0159 28.8673 15.6639 30.0993 15.6639C31.0593 15.6639 31.7633 15.3599 32.2113 14.7519C32.3553 14.5919 32.5233 14.5359 32.7153 14.5839L35.7873 15.6159C36.0273 15.7279 36.0913 15.8959 35.9793 16.1199C35.3873 17.2079 34.5553 17.9999 33.4833 18.4959C32.4273 18.9919 31.2913 19.2399 30.0753 19.2399ZM30.0273 9.39989C28.7953 9.39989 28.0433 10.0559 27.7713 11.3679H32.1393C31.8833 10.0559 31.1793 9.39989 30.0273 9.39989Z" fill="black"/>
<path d="M44.2019 19.2399C43.0179 19.2399 41.9779 18.9679 41.0819 18.4239C40.2019 17.8639 39.5139 17.0879 39.0179 16.0959C38.5219 15.0879 38.2739 13.9279 38.2739 12.6159C38.2739 11.2879 38.5219 10.1359 39.0179 9.15989C39.5139 8.16789 40.2019 7.39989 41.0819 6.85589C41.9779 6.29589 43.0179 6.01589 44.2019 6.01589C45.0019 6.01589 45.7219 6.16789 46.3619 6.47189C47.0179 6.75989 47.5699 7.18389 48.0179 7.74389L48.0659 6.61589C48.0659 6.37589 48.1939 6.25589 48.4499 6.25589H51.4739C51.7299 6.25589 51.8579 6.37589 51.8579 6.61589V18.6159C51.8579 18.8719 51.7299 18.9999 51.4739 18.9999H48.4499C48.1939 18.9999 48.0659 18.8719 48.0659 18.6159L48.0179 17.4879C47.0899 18.6559 45.8179 19.2399 44.2019 19.2399ZM45.2579 15.4479C46.0419 15.4479 46.6739 15.1839 47.1539 14.6559C47.6339 14.1279 47.8739 13.4479 47.8739 12.6159C47.8739 11.7839 47.6339 11.1119 47.1539 10.5999C46.6739 10.0719 46.0419 9.80789 45.2579 9.80789C44.4739 9.80789 43.8419 10.0719 43.3619 10.5999C42.8819 11.1119 42.6419 11.7839 42.6419 12.6159C42.6419 13.4479 42.8819 14.1279 43.3619 14.6559C43.8419 15.1839 44.4739 15.4479 45.2579 15.4479Z" fill="black"/>
<path d="M60.3605 19.2399C58.7605 19.2399 57.5845 18.7599 56.8325 17.7999C56.0965 16.8239 55.7285 15.4239 55.7285 13.5999V9.95189H54.2165C53.9605 9.95189 53.8325 9.82389 53.8325 9.56789V6.68789C53.8325 6.43189 53.9605 6.30389 54.2165 6.30389H55.7285V3.30389C55.7285 3.04789 55.8565 2.91989 56.1125 2.91989H59.6645C59.9205 2.91989 60.0485 3.04789 60.0485 3.30389V6.30389H62.5925C62.8485 6.30389 62.9765 6.43189 62.9765 6.68789V9.56789C62.9765 9.82389 62.8485 9.95189 62.5925 9.95189H60.0485V14.0079C60.0485 15.0639 60.3685 15.5919 61.0085 15.5919C61.2805 15.5919 61.5125 15.4399 61.7045 15.1359C61.8165 14.9759 61.9765 14.9439 62.1845 15.0399L64.6085 16.0719C64.8485 16.1839 64.8965 16.3839 64.7525 16.6719C64.3045 17.5839 63.6725 18.2399 62.8565 18.6399C62.0405 19.0399 61.2085 19.2399 60.3605 19.2399Z" fill="black"/>
<path d="M68.831 4.57589C68.159 4.57589 67.591 4.37589 67.127 3.97589C66.679 3.55989 66.455 3.01589 66.455 2.34389C66.455 1.67189 66.679 1.12789 67.127 0.711891C67.591 0.295891 68.159 0.0878906 68.831 0.0878906C69.503 0.0878906 70.063 0.295891 70.511 0.711891C70.975 1.12789 71.207 1.67189 71.207 2.34389C71.207 3.01589 70.975 3.55989 70.511 3.97589C70.063 4.37589 69.503 4.57589 68.831 4.57589ZM67.055 18.9999C66.799 18.9999 66.671 18.8719 66.671 18.6159V6.61589C66.671 6.37589 66.799 6.25589 67.055 6.25589H70.607C70.863 6.25589 70.991 6.37589 70.991 6.61589V18.6159C70.991 18.8719 70.863 18.9999 70.607 18.9999H67.055Z" fill="black"/>
<path d="M74.6365 18.9999C74.3805 18.9999 74.2525 18.8719 74.2525 18.6159V1.38389C74.2525 1.12789 74.3805 0.99989 74.6365 0.99989H78.1885C78.4445 0.99989 78.5725 1.12789 78.5725 1.38389V10.5279L82.1245 6.47189C82.2525 6.32789 82.4045 6.25589 82.5805 6.25589H86.7805C86.9405 6.25589 87.0445 6.30389 87.0925 6.39989C87.1405 6.47989 87.1005 6.58389 86.9725 6.71189L83.1805 10.6479L87.4765 18.5439C87.5565 18.6719 87.5725 18.7839 87.5245 18.8799C87.4765 18.9599 87.3725 18.9999 87.2125 18.9999H83.2285C83.0205 18.9999 82.8685 18.9119 82.7725 18.7359L80.1565 13.7919L78.5725 15.4239V18.6159C78.5725 18.8719 78.4445 18.9999 78.1885 18.9999H74.6365Z" fill="black"/>
<path d="M94.4266 19.2399C93.2426 19.2399 92.2026 18.9679 91.3066 18.4239C90.4266 17.8639 89.7386 17.0879 89.2426 16.0959C88.7466 15.0879 88.4986 13.9279 88.4986 12.6159C88.4986 11.2879 88.7466 10.1359 89.2426 9.15989C89.7386 8.16789 90.4266 7.39989 91.3066 6.85589C92.2026 6.29589 93.2426 6.01589 94.4266 6.01589C95.2266 6.01589 95.9466 6.16789 96.5866 6.47189C97.2426 6.75989 97.7946 7.18389 98.2426 7.74389L98.2906 6.61589C98.2906 6.37589 98.4186 6.25589 98.6746 6.25589H101.699C101.955 6.25589 102.083 6.37589 102.083 6.61589V18.6159C102.083 18.8719 101.955 18.9999 101.699 18.9999H98.6746C98.4186 18.9999 98.2906 18.8719 98.2906 18.6159L98.2426 17.4879C97.3146 18.6559 96.0426 19.2399 94.4266 19.2399ZM95.4826 15.4479C96.2666 15.4479 96.8986 15.1839 97.3786 14.6559C97.8586 14.1279 98.0986 13.4479 98.0986 12.6159C98.0986 11.7839 97.8586 11.1119 97.3786 10.5999C96.8986 10.0719 96.2666 9.80789 95.4826 9.80789C94.6986 9.80789 94.0666 10.0719 93.5866 10.5999C93.1066 11.1119 92.8666 11.7839 92.8666 12.6159C92.8666 13.4479 93.1066 14.1279 93.5866 14.6559C94.0666 15.1839 94.6986 15.4479 95.4826 15.4479Z" fill="black"/>
</svg>
